<?xml version="1.0" encoding="utf-8"?>
<!-- Generator: Adobe Illustrator 25.2.3, SVG Export Plug-In . SVG Version: 6.00 Build 0)  -->
<svg version="1.1" id="Layer_1" xmlns="http://www.w3.org/2000/svg" xmlns:xlink="http://www.w3.org/1999/xlink" x="0px" y="0px"
	 viewBox="0 0 90.4 29.6" style="enable-background:new 0 0 90.4 29.6;" xml:space="preserve">
<style type="text/css">
	.st0{fill-rule:evenodd;clip-rule:evenodd;fill:#007BBC;}
	.st1{fill:#0075BE;}
</style>
<rect x="33.7" y="5.2" class="st0" width="1.7" height="19.5"/>
<path class="st0" d="M42,16c-0.8-0.5-1.4-1.2-1.8-2.1c-0.4-0.8-0.6-1.7-0.6-2.7c0-1.7,0.5-3.2,1.8-4.3c1.2-1.2,3-1.7,4.5-1.7
	c1.9,0,2.4,0.3,4,1l4,1.7c1.9-1.7,4.3-2.7,6.9-2.7c1.9,0,3.7,0.5,5.3,1.5l17.2,11.2c1.1,0.7,1.7,1.9,1.7,3.1c0,3.1-2.9,3.7-3.1,3.7
	L46,24.8c-1.9,0-3.7-0.6-5.1-1.9c-1.4-1.4-1.9-3.1-2-5L39,16H42z M42.4,17.8c0.1,0.8,0.3,1.4,0.6,1.8c0.3,0.5,0.7,0.9,1.3,1.1
	c0.6,0.3,1.2,0.4,1.9,0.4c1,0,1.8-0.2,2.4-0.7c0.6-0.5,0.8-1.1,0.8-1.9c0-0.5-0.1-0.9-0.3-1.2c-0.2-0.3-0.5-0.6-0.9-0.8
	c-0.4-0.2-1.3-0.5-2.6-0.9c-1.2-0.3-2.1-0.7-2.6-1.1c-0.5-0.4-0.9-0.8-1.2-1.4c-0.3-0.6-0.4-1.2-0.4-1.9c0-1.3,0.4-2.3,1.2-3.1
	C43.3,7.4,44.4,7,45.8,7c0.9,0,1.8,0.2,2.5,0.6C49,7.9,49.6,8.5,50,9.2c0.4,0.7,0.6,1.5,0.6,2.5H49c-0.1-0.9-0.4-1.6-0.9-2.1
	c-0.5-0.5-1.2-0.7-2.2-0.7c-1,0-1.7,0.2-2.2,0.6c-0.5,0.4-0.8,1-0.8,1.7c0,0.6,0.2,1.1,0.6,1.5c0.4,0.3,1.2,0.7,2.5,1
	c1.3,0.3,2.2,0.6,2.7,0.9c0.8,0.4,1.4,0.9,1.8,1.6c0.4,0.6,0.6,1.4,0.6,2.3c0,0.9-0.2,1.7-0.6,2.4c-0.4,0.7-1,1.3-1.7,1.7
	S47.1,23,46,23c-1.6,0-2.8-0.5-3.8-1.4c-0.9-1-1.4-2.2-1.5-3.8H42.4z M60.6,8.7c2,0,3.7,0.8,4.9,2.2h2.1C66.2,8.5,63.6,7,60.6,7
	c-4.6,0-8.3,3.6-8.3,8c0,4.4,3.7,8,8.3,8c4.4,0,7.9-3.3,8.2-7.4h-6.2h-3.8v1.6h8c-0.9,2.4-3.3,4.2-6.2,4.2c-3.6,0-6.6-2.8-6.6-6.3
	S57,8.7,60.6,8.7 M81.1,23H66.6c2.3-1.6,3.9-4.1,4.3-6.9l12.2,4.8C83.1,22,82.3,23,81.1,23"/>
<path class="st1" d="M18.5,14.8c0,1.2-1,2.2-2.2,2.2s-2.2-1-2.2-2.2c0-1.2,1-2.2,2.2-2.2S18.5,13.6,18.5,14.8"/>
<path class="st1" d="M27.5,21.3c-0.3,0.5-1.3,0.8-2.6,0.8c-1,0-2.3-0.2-3.5-0.5c0.2-1.1,0.4-2.2,0.5-3.4c1.1-0.8,2-1.5,2.9-2.3
	C27.1,18.3,28.1,20.4,27.5,21.3 M16.3,27.7c-1.1,0-2.4-1.9-3.3-5.1c1.1-0.4,2.3-0.8,3.4-1.3c1.1,0.5,2.2,0.9,3.2,1.3
	C18.8,25.9,17.4,27.7,16.3,27.7 M7.9,22.1c-1.3,0-2.3-0.3-2.6-0.8c-0.5-0.9,0.4-3,2.7-5.4c0.8,0.7,1.7,1.4,2.7,2.2
	c0.1,1.3,0.3,2.5,0.5,3.6C10.1,22,8.9,22.1,7.9,22.1 M5.1,8.4c0.3-0.5,1.3-0.8,2.6-0.8c1,0,2.2,0.2,3.5,0.5
	c-0.3,1.1-0.4,2.4-0.5,3.7c-1,0.7-1.9,1.4-2.7,2.2C5.6,11.5,4.6,9.3,5.1,8.4 M16.3,1.9c1.1,0,2.5,1.9,3.4,5.2
	c-1,0.4-2.2,0.8-3.3,1.3c-1.2-0.5-2.3-1-3.4-1.4C13.9,3.8,15.3,1.9,16.3,1.9 M22,13.5c0.6,0.5,1.2,1,1.8,1.5c-0.5,0.5-1.1,1-1.8,1.4
	c0-0.5,0-1,0-1.5S22.1,13.9,22,13.5 M18.1,9.2C18.7,9,19.4,8.7,20,8.5c0.1,0.6,0.3,1.3,0.4,2c-0.4-0.3-0.8-0.5-1.2-0.7
	C18.8,9.7,18.5,9.5,18.1,9.2 M12.3,10.7c0.1-0.8,0.2-1.5,0.4-2.3C13.3,8.7,14,9,14.8,9.2c-0.4,0.2-0.8,0.4-1.1,0.6
	C13.2,10.1,12.7,10.4,12.3,10.7 M10.6,16.2c-0.6-0.4-1.1-0.9-1.5-1.3c0.5-0.4,1-0.9,1.5-1.3c0,0.4,0,0.8,0,1.2
	C10.6,15.3,10.6,15.8,10.6,16.2 M14.8,20.5c-0.7,0.3-1.4,0.5-2.1,0.8c-0.1-0.7-0.3-1.4-0.4-2.2c0.4,0.3,0.8,0.5,1.2,0.7
	C13.9,20,14.3,20.3,14.8,20.5 M20.4,19.2c-0.1,0.7-0.2,1.4-0.3,2c-0.6-0.2-1.3-0.4-1.9-0.7c0.4-0.2,0.9-0.5,1.3-0.7
	C19.7,19.6,20.1,19.4,20.4,19.2 M18.7,18.6c-0.8,0.4-1.5,0.8-2.3,1.2c-0.8-0.4-1.5-0.8-2.3-1.2c-0.7-0.4-1.4-0.9-2.1-1.3
	C12,16.5,12,15.7,12,14.8c0-0.8,0-1.5,0.1-2.3c0.7-0.5,1.5-1,2.3-1.4c0.7-0.4,1.4-0.8,2-1.1c0.7,0.3,1.4,0.7,2,1.1
	c0.7,0.4,1.4,0.9,2.1,1.3c0.1,0.8,0.1,1.6,0.1,2.4c0,0.9,0,1.8-0.1,2.6C20,17.8,19.4,18.2,18.7,18.6 M25.1,7.6
	c1.3,0,2.3,0.3,2.6,0.8c0.5,0.9-0.4,3.1-2.9,5.6c-0.9-0.8-1.8-1.6-2.9-2.3c-0.1-1.2-0.3-2.4-0.5-3.5C22.8,7.7,24.1,7.6,25.1,7.6
	 M29,7.7c-0.6-1-2-1.5-3.8-1.5c-1.2,0-2.6,0.2-4.1,0.6c-1-3.8-2.8-6.2-4.7-6.2c-1.9,0-3.7,2.4-4.7,6.2c-1.4-0.4-2.7-0.6-3.9-0.6
	c-1.9,0-3.2,0.5-3.8,1.5c-1,1.7,0.3,4.5,3.1,7.3c-2.7,2.7-3.9,5.4-2.9,7.1c0.6,1,2,1.5,3.8,1.5c1.1,0,2.3-0.2,3.7-0.5
	c1,3.7,2.8,6.2,4.7,6.2c1.9,0,3.7-2.4,4.7-6.2c1.4,0.4,2.7,0.6,3.9,0.6c1.9,0,3.2-0.5,3.8-1.5c1-1.7-0.3-4.3-2.9-7.1
	C28.7,12.1,30,9.4,29,7.7"/>
</svg>
